<svg width="15" height="27" viewBox="0 0 15 27" fill="none" xmlns="http://www.w3.org/2000/svg">
<path d="M0.0571289 20.0448C0.0571289 20.5424 0.232252 20.9972 0.509501 21.2199L7.05613 26.4747C7.16911 26.5662 7.30081 26.6132 7.42187 26.6133H7.4223C7.54396 26.6132 7.66922 26.5691 7.78804 26.4747L14.3347 21.2199C14.6119 20.9972 14.787 20.5424 14.787 20.0448V6.90768C14.787 6.41049 14.6092 5.95025 14.3347 5.73261L7.78804 0.477773C7.55766 0.292891 7.28652 0.292891 7.05613 0.477773L0.509501 5.73261C0.231542 5.95577 0.0571289 6.41495 0.0571289 6.90768V20.0448ZM1.69379 9.03335L6.60376 12.9745V23.174L1.69379 19.2329V9.03335ZM13.1504 19.2328L8.24041 23.174V12.9745L13.1504 9.03335V19.2328ZM7.42209 3.12166L12.1389 6.90768L7.42209 10.6937L2.70529 6.90768L7.42209 3.12166Z" fill="#FDA100"/>
</svg>
